<mxfile host="Electron" modified="2023-11-25T11:55:31.806Z" agent="Mozilla/5.0 (Windows NT 10.0; Win64; x64) AppleWebKit/537.36 (KHTML, like Gecko) draw.io/22.1.2 Chrome/114.0.5735.289 Electron/25.9.4 Safari/537.36" etag="HC-7oO_LtJr_e2jrldtU" version="22.1.2" type="device">
  <diagram id="6a731a19-8d31-9384-78a2-239565b7b9f0" name="Page-1">
    <mxGraphModel dx="1276" dy="606" grid="1" gridSize="10" guides="1" tooltips="1" connect="1" arrows="1" fold="1" page="1" pageScale="1" pageWidth="1169" pageHeight="827" background="none" math="0" shadow="0">
      <root>
        <mxCell id="0" />
        <mxCell id="1" parent="0" />
        <mxCell id="HI8zfmfq99nzV5EMz-2N-57" value="" style="edgeStyle=orthogonalEdgeStyle;rounded=0;orthogonalLoop=1;jettySize=auto;html=1;" parent="1" source="HI8zfmfq99nzV5EMz-2N-55" target="HI8zfmfq99nzV5EMz-2N-56" edge="1">
          <mxGeometry relative="1" as="geometry" />
        </mxCell>
        <mxCell id="HI8zfmfq99nzV5EMz-2N-55" value="" style="strokeWidth=2;html=1;shape=mxgraph.flowchart.start_2;whiteSpace=wrap;fillColor=#000000;" parent="1" vertex="1">
          <mxGeometry x="590" y="20" width="40" height="40" as="geometry" />
        </mxCell>
        <mxCell id="HI8zfmfq99nzV5EMz-2N-59" value="" style="edgeStyle=orthogonalEdgeStyle;rounded=0;orthogonalLoop=1;jettySize=auto;html=1;" parent="1" source="HI8zfmfq99nzV5EMz-2N-56" target="HI8zfmfq99nzV5EMz-2N-58" edge="1">
          <mxGeometry relative="1" as="geometry" />
        </mxCell>
        <mxCell id="HI8zfmfq99nzV5EMz-2N-56" value="学生登陆系统" style="strokeWidth=2;html=1;shape=mxgraph.flowchart.terminator;whiteSpace=wrap;" parent="1" vertex="1">
          <mxGeometry x="560" y="100" width="100" height="60" as="geometry" />
        </mxCell>
        <mxCell id="HI8zfmfq99nzV5EMz-2N-58" value="登陆场成功？" style="strokeWidth=2;html=1;shape=mxgraph.flowchart.decision;whiteSpace=wrap;" parent="1" vertex="1">
          <mxGeometry x="560" y="210" width="100" height="100" as="geometry" />
        </mxCell>
        <mxCell id="HI8zfmfq99nzV5EMz-2N-60" value="登陆失败提示" style="strokeWidth=2;html=1;shape=mxgraph.flowchart.terminator;whiteSpace=wrap;" parent="1" vertex="1">
          <mxGeometry x="760" y="310" width="100" height="60" as="geometry" />
        </mxCell>
        <mxCell id="HI8zfmfq99nzV5EMz-2N-63" style="edgeStyle=orthogonalEdgeStyle;rounded=0;orthogonalLoop=1;jettySize=auto;html=1;exitX=1;exitY=0.5;exitDx=0;exitDy=0;exitPerimeter=0;entryX=0.5;entryY=0;entryDx=0;entryDy=0;entryPerimeter=0;" parent="1" source="HI8zfmfq99nzV5EMz-2N-58" target="HI8zfmfq99nzV5EMz-2N-60" edge="1">
          <mxGeometry relative="1" as="geometry" />
        </mxCell>
        <mxCell id="HI8zfmfq99nzV5EMz-2N-64" value="否" style="text;html=1;align=center;verticalAlign=middle;resizable=0;points=[];autosize=1;strokeColor=none;fillColor=none;" parent="1" vertex="1">
          <mxGeometry x="670" y="218" width="40" height="30" as="geometry" />
        </mxCell>
        <mxCell id="HI8zfmfq99nzV5EMz-2N-69" value="" style="edgeStyle=orthogonalEdgeStyle;rounded=0;orthogonalLoop=1;jettySize=auto;html=1;" parent="1" source="HI8zfmfq99nzV5EMz-2N-66" target="HI8zfmfq99nzV5EMz-2N-68" edge="1">
          <mxGeometry relative="1" as="geometry" />
        </mxCell>
        <mxCell id="HI8zfmfq99nzV5EMz-2N-66" value="进入项目" style="strokeWidth=2;html=1;shape=mxgraph.flowchart.terminator;whiteSpace=wrap;" parent="1" vertex="1">
          <mxGeometry x="340" y="310" width="120" height="60" as="geometry" />
        </mxCell>
        <mxCell id="HI8zfmfq99nzV5EMz-2N-67" style="edgeStyle=orthogonalEdgeStyle;rounded=0;orthogonalLoop=1;jettySize=auto;html=1;exitX=0;exitY=0.5;exitDx=0;exitDy=0;exitPerimeter=0;entryX=0.5;entryY=0;entryDx=0;entryDy=0;entryPerimeter=0;" parent="1" source="HI8zfmfq99nzV5EMz-2N-58" target="HI8zfmfq99nzV5EMz-2N-66" edge="1">
          <mxGeometry relative="1" as="geometry" />
        </mxCell>
        <mxCell id="HI8zfmfq99nzV5EMz-2N-71" value="" style="edgeStyle=orthogonalEdgeStyle;rounded=0;orthogonalLoop=1;jettySize=auto;html=1;" parent="1" source="HI8zfmfq99nzV5EMz-2N-68" target="HI8zfmfq99nzV5EMz-2N-70" edge="1">
          <mxGeometry relative="1" as="geometry" />
        </mxCell>
        <mxCell id="HI8zfmfq99nzV5EMz-2N-68" value="点击“发布招募”" style="strokeWidth=2;html=1;shape=mxgraph.flowchart.terminator;whiteSpace=wrap;" parent="1" vertex="1">
          <mxGeometry x="350" y="390" width="100" height="60" as="geometry" />
        </mxCell>
        <mxCell id="HI8zfmfq99nzV5EMz-2N-73" value="" style="edgeStyle=orthogonalEdgeStyle;rounded=0;orthogonalLoop=1;jettySize=auto;html=1;" parent="1" source="HI8zfmfq99nzV5EMz-2N-70" target="HI8zfmfq99nzV5EMz-2N-72" edge="1">
          <mxGeometry relative="1" as="geometry" />
        </mxCell>
        <mxCell id="HI8zfmfq99nzV5EMz-2N-70" value="填写招募信息" style="strokeWidth=2;html=1;shape=mxgraph.flowchart.terminator;whiteSpace=wrap;" parent="1" vertex="1">
          <mxGeometry x="350" y="480" width="100" height="60" as="geometry" />
        </mxCell>
        <mxCell id="HI8zfmfq99nzV5EMz-2N-72" value="发布招募" style="strokeWidth=2;html=1;shape=mxgraph.flowchart.terminator;whiteSpace=wrap;" parent="1" vertex="1">
          <mxGeometry x="350" y="580" width="100" height="60" as="geometry" />
        </mxCell>
        <mxCell id="HI8zfmfq99nzV5EMz-2N-79" value="" style="strokeWidth=2;html=1;shape=mxgraph.flowchart.start_2;whiteSpace=wrap;" parent="1" vertex="1">
          <mxGeometry x="580" y="730" width="60" height="60" as="geometry" />
        </mxCell>
        <mxCell id="HI8zfmfq99nzV5EMz-2N-80" value="" style="strokeWidth=2;html=1;shape=mxgraph.flowchart.start_2;whiteSpace=wrap;fillColor=#000000;" parent="1" vertex="1">
          <mxGeometry x="590" y="740" width="40" height="40" as="geometry" />
        </mxCell>
        <mxCell id="mUeRgCEczcEFLoHj9ZrH-1" style="edgeStyle=orthogonalEdgeStyle;rounded=0;orthogonalLoop=1;jettySize=auto;html=1;exitX=0.5;exitY=1;exitDx=0;exitDy=0;exitPerimeter=0;entryX=0.5;entryY=0;entryDx=0;entryDy=0;entryPerimeter=0;" edge="1" parent="1" source="HI8zfmfq99nzV5EMz-2N-72" target="HI8zfmfq99nzV5EMz-2N-79">
          <mxGeometry relative="1" as="geometry">
            <Array as="points">
              <mxPoint x="400" y="690" />
              <mxPoint x="610" y="690" />
            </Array>
          </mxGeometry>
        </mxCell>
        <mxCell id="mUeRgCEczcEFLoHj9ZrH-2" style="edgeStyle=orthogonalEdgeStyle;rounded=0;orthogonalLoop=1;jettySize=auto;html=1;exitX=0.5;exitY=1;exitDx=0;exitDy=0;exitPerimeter=0;entryX=0.5;entryY=0;entryDx=0;entryDy=0;entryPerimeter=0;" edge="1" parent="1" source="HI8zfmfq99nzV5EMz-2N-60" target="HI8zfmfq99nzV5EMz-2N-79">
          <mxGeometry relative="1" as="geometry">
            <Array as="points">
              <mxPoint x="810" y="690" />
              <mxPoint x="610" y="690" />
            </Array>
          </mxGeometry>
        </mxCell>
        <mxCell id="mUeRgCEczcEFLoHj9ZrH-3" value="是" style="text;html=1;align=center;verticalAlign=middle;resizable=0;points=[];autosize=1;strokeColor=none;fillColor=none;" vertex="1" parent="1">
          <mxGeometry x="510" y="218" width="40" height="30" as="geometry" />
        </mxCell>
      </root>
    </mxGraphModel>
  </diagram>
</mxfile>
